<?xml version="1.0" encoding="UTF-8"?><svg id="Layer_2" xmlns="http://www.w3.org/2000/svg" viewBox="0 0 397.82 712.52"><g id="Layer_1-2"><polygon points="64.72 456.36 58.63 462.46 58.63 475.18 70.23 475.18 136.72 408.69 136.72 135.65 162.4 110.02 208.72 156.34 208.72 323.61 215.08 329.98 280.72 264.34 292.32 252.74 292.32 240.01 280.72 240.01 280.72 120.34 216.4 56.02 210.03 49.66 136.72 122.98 136.72 66.34 114.79 66.34 51.79 129.34 64.72 142.27 64.72 456.36"/><path d="m373.82,0H0v712.52l18.29-18.29,379.53-379.53V0h-24ZM18.29,18.29h307.53v266.59L18.29,592.4V18.29Z"/></g></svg>